<svg width="53" height="69" viewBox="0 0 53 69" fill="none" xmlns="http://www.w3.org/2000/svg">
<path d="M46.1219 31.8955C46.0595 31.8439 44.5773 30.6153 43.2543 30.2864C42.8051 30.1747 42.4282 30.1772 42.1028 30.2949C41.6154 30.4712 41.1976 30.7729 40.8409 31.1365C41.1055 30.3197 41.3586 29.4983 41.5915 28.6714C41.751 28.3173 41.902 27.8671 41.9426 27.3608C42.1015 26.7494 42.2524 26.1367 42.3929 25.5219C42.6104 25.7115 43.1161 26.1017 43.7727 26.2649C44.506 26.4472 45.2032 26.2966 45.8457 25.8167C47.1087 24.8735 47.8664 21.7255 47.9487 21.3691L48.0693 20.8466L47.7268 20.7891C47.4183 20.7377 44.6743 20.3103 43.4733 21.207C43.3706 21.2839 43.2759 21.3661 43.1842 21.4518C43.2246 21.2043 43.264 20.9558 43.3023 20.7077C43.483 20.468 43.6724 20.1483 43.7963 19.7353C43.9716 19.1528 43.9629 18.5481 43.786 17.9394C43.936 18.0763 44.3369 18.4026 44.8685 18.5348C45.437 18.6761 45.9793 18.5562 46.4812 18.1775C47.4699 17.431 48.0559 14.9941 48.1193 14.7185L48.2403 14.1956L47.8981 14.1381C47.6639 14.099 45.5842 13.7754 44.6556 14.475C44.3457 14.709 44.1027 15.0018 43.9176 15.3406C43.9457 14.9392 43.9668 14.5389 43.9876 14.139C44.0764 14.1194 44.5921 13.9788 44.9829 13.3576C45.1556 13.0833 45.3647 12.6093 45.3815 11.9086C45.4074 10.8232 44.5558 8.68487 44.3789 8.36918L43.5394 7.02934L43.0391 9.20873C43.0391 9.20873 42.6302 10.5191 42.6012 11.718C42.5623 13.343 43.669 14.0339 43.8028 14.1116C43.7108 15.1379 43.6005 16.1652 43.4583 17.1925C43.4568 17.2022 43.4551 17.2113 43.4539 17.2212C42.7481 16.1513 41.2671 15.1597 41.0726 15.0326L40.7557 14.825L40.561 15.3577C40.4614 15.6305 39.6001 18.0625 40.0519 19.4164C40.4446 20.5952 41.304 21.0355 41.9558 21.1976C42.3387 21.2928 42.6272 21.2841 42.6391 21.2843L42.7261 21.2811L42.7585 21.2571C42.6908 21.5947 42.6191 21.9307 42.5472 22.2666C42.431 22.4751 42.333 22.6972 42.2571 22.9354C42.096 23.4421 42.0602 23.9248 42.0702 24.3205C42.0105 24.56 41.9575 24.801 41.895 25.0398C41.8245 25.3108 41.747 25.5796 41.6709 25.8492C41.577 25.6611 41.4628 25.4808 41.3229 25.3121C40.9641 24.8797 40.2788 24.5423 39.2281 24.2811C38.1431 24.0113 37.0819 23.9308 37.0372 23.9276L36.6607 23.8998L36.5888 24.4681C36.5707 24.6087 36.1625 27.9308 37.1501 29.1203C37.4899 29.531 37.9212 29.8031 38.4315 29.9299C39.1814 30.1164 39.9505 29.9538 40.4486 29.793C39.2571 33.2438 37.7884 36.5502 36.0678 39.5753L36.9791 40.4859C37.8899 38.721 38.7137 36.8838 39.4572 35.0036C39.696 35.5827 40.1905 36.4555 41.0634 36.6726C41.4157 36.7602 41.7989 36.7311 42.2012 36.5859C43.6288 36.07 46.008 32.842 46.1082 32.7049L46.4813 32.1958L46.1219 31.8955Z" fill="#E1B574"/>
<path d="M27.6197 52.295C27.5599 52.2407 26.1351 50.9542 25.6471 49.7149C25.4814 49.2941 25.4406 48.9296 25.5233 48.6014C25.6473 48.1095 25.9072 47.6701 26.2374 47.2824C25.4339 47.6348 24.6245 47.9766 23.8071 48.2996C23.4639 48.4956 23.0217 48.6949 22.5095 48.7941C21.9037 49.02 21.2955 49.2384 20.684 49.447C20.9026 49.6347 21.3591 50.0771 21.6013 50.6921C21.8718 51.379 21.7982 52.0705 21.3822 52.7481C20.5646 54.0801 17.438 55.1851 17.0836 55.3068L16.5641 55.4852L16.4659 55.1611C16.378 54.8691 15.626 52.2686 16.4033 51.0019C16.4699 50.8936 16.543 50.7923 16.62 50.6936C16.3719 50.762 16.1228 50.8294 15.8739 50.8958C15.65 51.0988 15.3454 51.3197 14.938 51.4883C14.3635 51.7267 13.7452 51.7898 13.1034 51.691C13.2604 51.8198 13.6397 52.1685 13.8358 52.6665C14.0455 53.199 13.9854 53.7372 13.6565 54.2669C13.0082 55.3106 10.5878 56.1655 10.3137 56.2594L9.79386 56.4382L9.69579 56.1144C9.62892 55.8928 9.05933 53.9217 9.66663 52.9416C9.8699 52.6145 10.1409 52.345 10.4655 52.1261C10.0589 52.2007 9.65264 52.2686 9.2468 52.336C9.23707 52.4241 9.15281 52.9391 8.5636 53.3902C8.30342 53.5896 7.84359 53.8478 7.1302 53.947C6.02508 54.1006 4.25969 53.4421 3.91705 53.3085L3.52507 53.1564L3.88542 52.8226C4.0364 52.6829 5.39518 51.4533 6.61574 51.2832C8.27025 51.0532 9.10288 52.0406 9.19761 52.1607C10.2347 51.9502 11.2708 51.722 12.3032 51.463C12.3129 51.4603 12.3221 51.4576 12.332 51.4553C11.1585 50.9001 9.9759 49.5866 9.82376 49.4137L9.57535 49.1321L10.0968 48.8809C10.3638 48.7524 12.7475 47.6321 14.1816 47.9083C15.4302 48.1481 15.9787 48.9262 16.2191 49.5369C16.3604 49.8955 16.3847 50.1753 16.3862 50.1868L16.393 50.2712L16.3722 50.3054C16.709 50.1999 17.0438 50.0909 17.3785 49.9816C17.578 49.8447 17.7934 49.7237 18.0278 49.6221C18.5266 49.4065 19.0153 49.3147 19.4204 49.2774C19.658 49.1915 19.898 49.1116 20.1345 49.023C20.4031 48.9228 20.6686 48.8161 20.9351 48.7106C20.7322 48.6422 20.535 48.5531 20.3467 48.438C19.8641 48.1425 19.4407 47.5204 19.0532 46.5362C18.6529 45.5198 18.4487 44.5039 18.4403 44.4611L18.3686 44.1007L18.9405 43.9639C19.0819 43.9297 22.4264 43.1418 23.7544 43.9552C24.2128 44.2349 24.5401 44.6193 24.7284 45.0974C25.005 45.7999 24.9275 46.5622 24.8206 47.0625C28.2064 45.5025 31.413 43.6919 34.3032 41.6712L35.3377 42.4437C33.6407 43.5328 31.86 44.5464 30.026 45.4874C30.6447 45.6495 31.5927 46.0239 31.9147 46.8417C32.0446 47.1717 32.059 47.5454 31.957 47.9512C31.5947 49.3917 28.5729 52.0728 28.4445 52.1859L27.9677 52.6067L27.6197 52.295Z" fill="#E1B574"/>
</svg>
