<svg width="73" height="61" viewBox="0 0 73 61" fill="none" xmlns="http://www.w3.org/2000/svg">
<path d="M50.9534 44.8076C50.9534 44.7266 50.9589 42.8014 50.3713 41.5712C50.1718 41.1536 49.9302 40.8643 49.6325 40.6881C49.1864 40.4241 48.6878 40.2936 48.1804 40.2496C48.979 39.9342 49.7738 39.6072 50.5601 39.261C50.9348 39.1588 51.3782 38.9891 51.7948 38.6984C52.3676 38.4322 52.9364 38.159 53.5002 37.8764C53.4922 38.1649 53.5128 38.8032 53.8044 39.4137C54.1301 40.0956 54.6898 40.5378 55.4687 40.7284C56.9998 41.1031 59.911 39.6858 60.2384 39.5226L60.7182 39.2834L60.5449 38.9825C60.3883 38.7117 58.973 36.3224 57.5171 35.9659C57.3925 35.9355 57.2688 35.9147 57.1443 35.8985C57.3611 35.7723 57.5778 35.6446 57.7937 35.5164C58.0936 35.5034 58.4607 35.4462 58.8583 35.2791C59.4193 35.044 59.8803 34.6527 60.2376 34.129C60.2274 34.3319 60.2305 34.8488 60.4666 35.3431C60.7191 35.8716 61.1566 36.2138 61.768 36.3603C62.9729 36.6485 65.2261 35.5509 65.4791 35.4245L65.9596 35.1854L65.7863 34.8848C65.6676 34.6792 64.5946 32.8685 63.4641 32.5967C63.0865 32.5064 62.7059 32.5051 62.3268 32.5778C62.6544 32.3442 62.9768 32.1059 63.2986 31.8675C63.3701 31.9237 63.8067 32.2322 64.5346 32.1387C64.8561 32.0975 65.3549 31.9574 65.9063 31.5247C66.7604 30.8544 67.8689 28.8373 68 28.5L68.5 27L66.5 28C66.5 28 65.2287 28.5179 64.2851 29.258C63.0063 30.2615 63.1771 31.5549 63.2022 31.7076C62.3517 32.2892 61.4888 32.8575 60.6056 33.4011C60.5971 33.4061 60.589 33.4106 60.5807 33.416C60.9574 32.1909 60.7807 30.4174 60.7551 30.1864L60.7137 29.8098L60.1788 29.9984C59.905 30.0951 57.4804 30.9771 56.723 32.1868C56.063 33.2395 56.2698 34.1828 56.5593 34.7889C56.7293 35.1449 56.9195 35.362 56.927 35.3713L56.9847 35.4364L57.0239 35.4462C56.7203 35.6086 56.4154 35.767 56.1104 35.9251C55.8756 35.9681 55.642 36.0337 55.4099 36.1266C54.9164 36.3246 54.5211 36.6039 54.2221 36.8633C53.9994 36.9695 53.7796 37.0819 53.5556 37.1855C53.3016 37.3035 53.0449 37.4146 52.7885 37.5274C52.8739 37.3353 52.9404 37.1324 52.9816 36.9173C53.087 36.3654 52.9116 35.622 52.445 34.645C51.9631 33.6361 51.3503 32.766 51.3243 32.7294L51.1064 32.4212L50.6221 32.7272C50.5021 32.8026 47.6788 34.6004 47.389 36.1191C47.2882 36.6425 47.3525 37.1483 47.5792 37.6229C47.9122 38.3202 48.5268 38.8103 48.9677 39.0923C45.5469 40.3675 42.0613 41.3371 38.6326 41.9332L38.5094 43.2155C40.4507 42.7959 42.3923 42.2632 44.3162 41.6412C44.0211 42.1938 43.662 43.1305 44.0497 43.9422C44.2062 44.2698 44.4723 44.547 44.8402 44.765C46.1463 45.5387 50.1505 45.3216 50.32 45.3118L50.9502 45.276L50.9534 44.8076Z" fill="#E1B574"/>
<path d="M23.4439 43.5034C23.4477 43.4228 23.5344 41.505 24.1804 40.3402C24.3997 39.9448 24.655 39.6815 24.9609 39.5365C25.4194 39.3194 25.9238 39.2405 26.4329 39.2487C25.65 38.8528 24.8715 38.4456 24.1023 38.0202C23.7328 37.88 23.2978 37.6655 22.8955 37.3334C22.3358 37.0095 21.7805 36.6791 21.2307 36.3398C21.2249 36.6279 21.1738 37.2616 20.8532 37.8396C20.4951 38.4852 19.9147 38.8682 19.1272 38.9781C17.5793 39.1943 14.7381 37.4843 14.4188 37.2882L13.9508 37.0008L14.1384 36.7189C14.3078 36.4654 15.8364 34.2311 17.3082 34.0253C17.4342 34.0079 17.5588 33.9998 17.684 33.9965C17.4734 33.8485 17.2629 33.6992 17.0534 33.5494C16.7543 33.5057 16.3902 33.4111 16.001 33.2039C15.4516 32.9122 15.0096 32.4753 14.6777 31.9171C14.6782 32.1202 14.6503 32.6347 14.3908 33.1027C14.1132 33.6031 13.6596 33.8991 13.0417 33.9822C11.8239 34.1457 9.62491 32.8216 9.37815 32.6698L8.90949 32.3823L9.09697 32.1007C9.2255 31.9082 10.3843 30.215 11.5269 30.0603C11.9086 30.0091 12.2889 30.0469 12.6643 30.1581C12.3481 29.8919 12.0374 29.6215 11.7273 29.3512C11.6531 29.3997 11.2021 29.6622 10.4792 29.4945C10.1598 29.4205 9.66818 29.2298 9.13792 28.7424C8.31654 27.9873 7.7019 26.2061 7.58705 25.8568L7.45514 25.4575L7.94197 25.5233C8.14576 25.551 9.95885 25.8175 10.8663 26.6513C12.0961 27.7817 11.8636 29.0523 11.8312 29.2018C12.6532 29.8682 13.4883 30.5226 14.3448 31.1545C14.353 31.1604 14.3609 31.1657 14.369 31.1719C14.0512 29.9132 14.3127 28.1652 14.3493 27.9379L14.4086 27.5671L14.9341 27.8097C15.2031 27.9341 17.5837 29.061 18.2826 30.3434C18.8917 31.4594 18.6399 32.3776 18.3217 32.9515C18.1347 33.2886 17.9343 33.4853 17.9263 33.4938L17.8656 33.5527L17.826 33.5584C18.1215 33.7513 18.4186 33.9403 18.7158 34.129C18.9484 34.1959 19.1787 34.2852 19.4062 34.4015C19.8898 34.6492 20.2715 34.968 20.5579 35.2569C20.7753 35.3856 20.9895 35.52 21.2084 35.6462C21.4565 35.7898 21.7077 35.9267 21.9586 36.0653C21.8824 35.8652 21.8257 35.6564 21.7948 35.4379C21.7158 34.8775 21.9267 34.1551 22.4397 33.2301C22.9695 32.2748 23.6235 31.4711 23.6512 31.4374L23.8838 31.1529L24.353 31.5072C24.4694 31.5946 27.2045 33.6744 27.4214 35.2165C27.4971 35.7482 27.4086 36.2453 27.1594 36.6946C26.7932 37.3548 26.1556 37.7799 25.7016 38.0155C29.0587 39.6362 32.4954 40.9592 35.8929 41.9044L35.9546 43.194C34.0349 42.5771 32.1202 41.8475 30.2277 41.0308C30.4961 41.6114 30.81 42.581 30.3838 43.3496C30.2117 43.6597 29.9326 43.9085 29.5545 44.0879C28.2124 44.7244 24.2216 44.0977 24.0526 44.0705L23.4246 43.9702L23.4439 43.5034Z" fill="#E1B574"/>
</svg>
