<svg width="69" height="53" viewBox="0 0 69 53" fill="none" xmlns="http://www.w3.org/2000/svg">
<path d="M36.402 45.9328C36.4531 45.87 37.6714 44.3794 37.9911 43.0541C38.0997 42.6042 38.0946 42.2273 37.9746 41.9028C37.7949 41.4166 37.4903 41.0008 37.1242 40.6467C37.9429 40.9056 38.766 41.153 39.5945 41.3802C39.9498 41.5372 40.4009 41.6851 40.9075 41.7222C41.52 41.8768 42.1338 42.0235 42.7495 42.1597C42.5614 42.3785 42.1748 42.8869 42.0161 43.5446C41.8388 44.2792 41.9943 44.9753 42.4787 45.6144C43.4306 46.8708 46.5838 47.6067 46.9408 47.6865L47.464 47.8035L47.5192 47.4606C47.5685 47.1518 47.9769 44.4049 47.0718 43.2101C46.9942 43.1079 46.9114 43.0138 46.825 42.9227C47.0728 42.9614 47.3215 42.9991 47.5699 43.0356C47.8108 43.2147 48.1318 43.4019 48.5457 43.5229C49.1294 43.6941 49.734 43.6812 50.3415 43.5001C50.2057 43.6511 49.8821 44.0543 49.7536 44.5867C49.6162 45.1562 49.74 45.6976 50.1221 46.1969C50.8754 47.1804 53.3163 47.7495 53.5924 47.8109L54.1161 47.9283L54.1712 47.5858C54.2087 47.3513 54.5178 45.2694 53.8119 44.3456C53.5757 44.0374 53.2812 43.7964 52.9411 43.6137C53.3427 43.639 53.7432 43.6574 54.1432 43.6753C54.1634 43.764 54.3076 44.2788 54.9315 44.6652C55.207 44.836 55.6824 45.0418 56.3832 45.0537C57.4688 45.0721 59.6011 44.2057 59.9156 44.0266L61.2496 43.1778L59.0668 42.6926C59.0668 42.6926 57.7536 42.2929 56.5545 42.2722C54.9293 42.2446 54.2461 43.356 54.1693 43.4904C53.1424 43.4055 52.1144 43.3023 51.0861 43.1673C51.0764 43.1658 51.0672 43.1642 51.0574 43.163C52.1224 42.4499 53.1036 40.962 53.2294 40.7666L53.4348 40.4483L52.9007 40.2573C52.6272 40.1596 50.1893 39.3152 48.8387 39.7763C47.6626 40.1772 47.2282 41.0397 47.0706 41.6926C46.9781 42.0762 46.9888 42.3646 46.9887 42.3765L46.9925 42.4634L47.0167 42.4957C46.6787 42.4303 46.3422 42.361 46.0058 42.2913C45.7964 42.1767 45.5738 42.0802 45.335 42.0059C44.8272 41.8484 44.3442 41.8159 43.9486 41.8286C43.7088 41.7707 43.4673 41.7193 43.2282 41.6585C42.9566 41.5899 42.6874 41.5142 42.4172 41.44C42.6047 41.3448 42.7842 41.2293 42.9519 41.0883C43.3817 40.7264 43.7144 40.0389 43.9683 38.9864C44.2306 37.8995 44.3037 36.8377 44.3066 36.793L44.3318 36.4164L43.763 36.3484C43.6223 36.3313 40.2975 35.9461 39.1148 36.942C38.7065 37.2847 38.4374 37.7178 38.3141 38.229C38.1328 38.9802 38.3008 39.7481 38.465 40.245C35.0061 39.0775 31.6895 37.6319 28.6526 35.9323L27.7483 36.8498C29.5195 37.7484 31.3623 38.5594 33.2477 39.2899C32.6702 39.5326 31.8008 40.0332 31.5898 40.9076C31.5047 41.2605 31.5364 41.6435 31.6844 42.0447C32.2102 43.4688 35.4547 45.8254 35.5924 45.9248L36.1042 46.2943L36.402 45.9328Z" fill="#E1B574"/>
<path d="M15.8746 27.5727C15.9284 27.5125 17.205 26.0788 18.4409 25.5822C18.8605 25.4136 19.2247 25.3703 19.5535 25.4507C20.0462 25.5713 20.4874 25.8282 20.8774 26.1556C20.5195 25.3546 20.1721 24.5476 19.8434 23.7324C19.645 23.3906 19.4426 22.9499 19.3399 22.4383C19.1098 21.8341 18.8872 21.2274 18.6744 20.6174C18.4882 20.8373 18.049 21.2969 17.4357 21.5433C16.7506 21.8186 16.0586 21.7498 15.3782 21.3385C14.0405 20.5301 12.9138 17.4113 12.7897 17.0578L12.6077 16.5395L12.9311 16.4391C13.2224 16.3491 15.8177 15.5791 17.0898 16.3476C17.1985 16.4135 17.3003 16.4858 17.3996 16.5621C17.3294 16.3145 17.2603 16.0659 17.1922 15.8175C16.9876 15.595 16.7646 15.2919 16.5932 14.8857C16.3508 14.3129 16.2834 13.695 16.3777 13.0525C16.25 13.2104 15.904 13.5922 15.4074 13.7917C14.8764 14.0051 14.3378 13.9487 13.8057 13.6235C12.7576 12.9825 11.8859 10.5681 11.7902 10.2947L11.6077 9.77604L11.9308 9.67572C12.152 9.60732 14.1191 9.02406 15.1034 9.62455C15.4319 9.82555 15.7032 10.0947 15.9244 10.4177C15.8469 10.0117 15.7763 9.60589 15.7061 9.20052C15.6179 9.1914 15.1023 9.11072 14.6471 8.52466C14.4459 8.26586 14.1846 7.80784 14.0804 7.09516C13.9191 5.99113 14.5653 4.22121 14.6965 3.87765L14.8459 3.48462L15.1823 3.84265C15.323 3.99266 16.562 5.34287 16.7405 6.56222C16.9821 8.2151 16.0004 9.05456 15.881 9.15011C16.0986 10.1857 16.3341 11.2202 16.6003 12.2508C16.603 12.2605 16.6057 12.2696 16.6081 12.2795C17.1552 11.1022 18.4605 9.91053 18.6323 9.75719L18.9122 9.50683L19.167 10.0265C19.2973 10.2927 20.4341 12.6685 20.1679 14.1045C19.9368 15.3548 19.1624 15.9086 18.5535 16.1533C18.1958 16.297 17.9162 16.3232 17.9047 16.3248L17.8204 16.3322L17.7861 16.3117C17.8938 16.6478 18.0052 16.9818 18.1168 17.3157C18.2551 17.5142 18.3776 17.7288 18.4808 17.9625C18.6999 18.4598 18.7951 18.9478 18.8351 19.3527C18.9228 19.5897 19.0042 19.8291 19.0945 20.065C19.1966 20.3329 19.3051 20.5976 19.4124 20.8634C19.4795 20.66 19.5671 20.4622 19.681 20.2732C19.9731 19.7884 20.5923 19.3608 21.5738 18.9664C22.5874 18.5591 23.6018 18.3478 23.6445 18.3391L24.0044 18.2649L24.1452 18.8358C24.1803 18.9771 24.9915 22.316 24.1873 23.6496C23.9108 24.11 23.5287 24.44 23.0519 24.6315C22.3514 24.913 21.5885 24.8408 21.0875 24.7374C22.6709 28.1122 24.5038 31.3062 26.5445 34.1824L25.7791 35.2221C24.6783 33.5328 23.6524 31.7591 22.6986 29.9317C22.5409 30.5515 22.173 31.502 21.3575 31.8297C21.0284 31.962 20.6549 31.979 20.2483 31.8798C18.8054 31.5274 16.1034 28.5243 15.9894 28.3967L15.5653 27.9228L15.8746 27.5727Z" fill="#E1B574"/>
</svg>
