<svg width="13" height="13" viewBox="0 0 13 13" fill="none" xmlns="http://www.w3.org/2000/svg">
<path d="M12.065 0.607971H1.83795C1.34887 0.607971 0.951965 1.00616 0.951965 1.49648V12.0492C0.951965 12.5402 1.34887 12.9389 1.83795 12.9389H12.065C12.5545 12.9389 12.954 12.5402 12.954 12.0492V1.49648C12.954 1.00616 12.5545 0.607971 12.065 0.607971ZM4.51158 11.1156H2.73061V5.23121H4.51158V11.1156ZM3.62109 4.42662C3.05049 4.42662 2.58925 3.95153 2.58925 3.36582C2.58925 2.78095 3.05049 2.30587 3.62109 2.30587C4.19036 2.30587 4.65277 2.78095 4.65277 3.36582C4.65277 3.95153 4.19036 4.42662 3.62109 4.42662ZM11.1787 11.1156H9.40059V8.25417C9.40059 7.57152 9.38759 6.69379 8.47526 6.69379C7.54877 6.69379 7.40758 7.43725 7.40758 8.20467V11.1158H5.6281V5.23121H7.3359V6.03478H7.36024C7.59794 5.57237 8.17871 5.08444 9.04486 5.08444C10.8462 5.08444 11.1789 6.3028 11.1789 7.88784L11.1787 11.1156Z" fill="#D9D9D9"/>
</svg>
