<svg width="30" height="30" viewBox="0 0 30 30" fill="none" xmlns="http://www.w3.org/2000/svg">
<path d="M0 0H30V30H0V0Z" fill="#F7DF1E"/>
<path d="M7.88799 25.0702L10.1838 23.6809C10.6267 24.4661 11.0296 25.1306 11.996 25.1306C12.9224 25.1306 13.5065 24.7682 13.5065 23.3587V13.7729H16.3257V23.3985C16.3257 26.3185 14.6141 27.6476 12.1169 27.6476C9.86161 27.6476 8.55246 26.4796 7.88794 25.07" fill="black"/>
<path d="M17.8571 24.7681L20.1526 23.439C20.7569 24.4258 21.5422 25.1507 22.9317 25.1507C24.0998 25.1507 24.8447 24.5667 24.8447 23.7612C24.8447 22.7946 24.0795 22.4522 22.7907 21.8885L22.0861 21.5862C20.052 20.7205 18.7027 19.633 18.7027 17.3373C18.7027 15.2228 20.3137 13.6117 22.8311 13.6117C24.6233 13.6117 25.9122 14.236 26.8384 15.8672L24.6433 17.2768C24.16 16.4109 23.6366 16.0686 22.8311 16.0686C22.0054 16.0686 21.4818 16.5922 21.4818 17.2768C21.4818 18.1226 22.0054 18.465 23.2136 18.9886L23.9183 19.2907C26.3148 20.3178 27.6641 21.3648 27.6641 23.7209C27.6641 26.2584 25.6704 27.6478 22.9922 27.6478C20.3742 27.6478 18.6826 26.3993 17.8571 24.7681Z" fill="black"/>
</svg>
