<svg width="27" height="30" viewBox="0 0 27 30" fill="none" xmlns="http://www.w3.org/2000/svg">
<path d="M2.4075 27.0011L0 0H26.4536L24.0429 26.9968L13.2107 30L2.4075 27.0011Z" fill="#E44F26"/>
<path d="M13.2267 27.705L21.9803 25.2782L24.0396 2.20819H13.2267V27.705Z" fill="#F1662A"/>
<path d="M13.2267 12.2218H8.84459L8.54244 8.83071H13.2267V5.51892H13.2149H4.92316L5.00244 6.40821L5.81566 15.5336H13.2267V12.2218Z" fill="#EBEBEB"/>
<path d="M13.2268 20.8221L13.2118 20.8264L9.52398 19.8311L9.28827 17.19H7.49577H5.96362L6.42755 22.3886L13.2118 24.2721L13.2268 24.2679V20.8221Z" fill="#EBEBEB"/>
<path d="M13.215 12.2218V15.5336H17.2928L16.9093 19.8289L13.215 20.8254V24.2711L20.0046 22.3886L20.0539 21.8293L20.8318 13.1111L20.9132 12.2218H20.0207H13.215Z" fill="white"/>
<path d="M13.215 5.51892V7.57606V8.82321V8.83071H21.2035H21.2143L21.2807 8.08714L21.4318 6.40821L21.511 5.51892H13.215Z" fill="white"/>
</svg>
