<svg width="18" height="18" viewBox="0 0 18 18" fill="none" xmlns="http://www.w3.org/2000/svg">
<path d="M15.9591 0H1.27233C0.569977 0 0 0.556571 0 1.24193V15.9922C0 16.6785 0.569977 17.2358 1.27233 17.2358H15.9591C16.662 17.2358 17.2358 16.6785 17.2358 15.9922V1.24193C17.2358 0.556571 16.662 0 15.9591 0ZM5.11184 14.6873H2.55424V6.46221H5.11184V14.6873ZM3.83304 5.33758C3.01362 5.33758 2.35124 4.67352 2.35124 3.85483C2.35124 3.03732 3.01362 2.37327 3.83304 2.37327C4.65054 2.37327 5.3146 3.03732 5.3146 3.85483C5.3146 4.67352 4.65054 5.33758 3.83304 5.33758ZM14.6863 14.6873H12.1328V10.6876C12.1328 9.73342 12.1141 8.50656 10.8039 8.50656C9.47344 8.50656 9.27068 9.54574 9.27068 10.6184V14.6875H6.71524V6.46221H9.16775V7.58541H9.2027C9.54406 6.93907 10.3781 6.25706 11.6219 6.25706C14.2087 6.25706 14.6865 7.96005 14.6865 10.1756L14.6863 14.6873Z" fill="#D9D9D9"/>
</svg>
