<svg width="27" height="30" viewBox="0 0 27 30" fill="none" xmlns="http://www.w3.org/2000/svg">
<path d="M2.40643 27.0011L0 0H26.4514L24.0418 26.9968L13.2096 30L2.40643 27.0011Z" fill="#1572B6"/>
<path d="M13.2257 27.705L21.9793 25.2782L24.0386 2.20819H13.2257V27.705Z" fill="#33A9DC"/>
<path d="M13.2257 11.9903H17.6079L17.91 8.59926H13.2257V5.28748H13.2375H21.5293L21.45 6.17569L20.6368 15.3021H13.2257V11.9903Z" fill="white"/>
<path d="M13.246 20.5907L13.231 20.595L9.54315 19.5986L9.30743 16.9575H7.51493H5.98279L6.44672 22.1572L13.2299 24.0407L13.246 24.0364V20.5907Z" fill="#EBEBEB"/>
<path d="M17.3261 15.1617L16.9275 19.5964L13.2343 20.5928V24.0385L20.0229 22.1571L20.0732 21.5978L20.6486 15.1617H17.3261Z" fill="white"/>
<path d="M13.2375 5.28748V7.34462V8.59069V8.59926H5.24891H5.23819L5.17176 7.85462L5.02069 6.17569L4.94141 5.28748H13.2375Z" fill="#EBEBEB"/>
<path d="M13.2256 11.9904V14.0475V15.2936V15.3021H9.59451H9.5838L9.51737 14.5575L9.36737 12.8786L9.28809 11.9904H13.2256Z" fill="#EBEBEB"/>
</svg>
