<svg width="20" height="21" viewBox="0 0 20 21" fill="none" xmlns="http://www.w3.org/2000/svg">
<path d="M18.5186 0H1.47639C0.661389 0 0 0.663529 0 1.4806V19.0654C0 19.8836 0.661389 20.548 1.47639 20.548H18.5186C19.3342 20.548 20 19.8836 20 19.0654V1.4806C20 0.663529 19.3342 0 18.5186 0ZM5.93167 17.5097H2.96389V7.70407H5.93167V17.5097ZM4.44778 6.36331C3.49694 6.36331 2.72833 5.57165 2.72833 4.59562C2.72833 3.62101 3.49694 2.82934 4.44778 2.82934C5.39639 2.82934 6.16694 3.62101 6.16694 4.59562C6.16694 5.57165 5.39639 6.36331 4.44778 6.36331ZM17.0417 17.5097H14.0786V12.7415C14.0786 11.6039 14.0569 10.1413 12.5367 10.1413C10.9928 10.1413 10.7575 11.3802 10.7575 12.659V17.51H7.79222V7.70407H10.6381V9.04312H10.6786C11.0747 8.27257 12.0425 7.45949 13.4858 7.45949C16.4875 7.45949 17.0419 9.48975 17.0419 12.131L17.0417 17.5097Z" fill="#E1B574"/>
</svg>
