<svg width="115" height="115" viewBox="0 0 115 115" fill="none" xmlns="http://www.w3.org/2000/svg">
<ellipse cx="57.5852" cy="57.4523" rx="57.3481" ry="56.6442" fill="#E1B574"/>
<ellipse cx="57.5853" cy="57.4522" rx="55.839" ry="55.0923" fill="white"/>
<path d="M19.8562 19.4308H96.9313V93.9218H19.8562V19.4308Z" fill="white"/>
<path d="M40.1175 30.1061C37.4797 30.9281 35.4159 31.8308 32.8729 33.6343C32.5432 33.9394 32.22 34.2482 31.9034 34.5663C31.9395 34.6486 31.9952 34.7503 32.0776 34.8936C32.2305 35.1602 32.4941 35.4789 32.8257 35.7942C32.3058 36.5996 31.8328 37.4051 31.3956 38.2128C30.8441 37.7705 30.7581 35.4461 30.3604 34.8936C29.2138 36.2765 27.7724 39.5889 26.8747 41.1547C26.9342 41.3927 27.1091 41.6522 27.4437 41.9999C27.8436 42.415 28.4681 42.8438 29.1939 43.2096C28.8892 44.0995 28.6279 44.9851 28.4132 45.8691C27.2932 45.3774 26.3052 43.3111 25.5 42.5C24.6058 44.5083 23.887 48.0627 23.4455 50.2794C23.6464 50.6335 24.0046 50.9578 24.5462 51.3024C25.3097 51.7884 26.4068 52.1864 27.5994 52.4165C27.5926 53.353 27.637 54.2819 27.7216 55.1988C26.0044 54.9554 24.3503 53.3596 23 52.5C22.8028 54.7682 22.8438 58.0664 23.1396 60.2409C23.4873 60.7472 24.0693 61.1076 24.9365 61.3958C26.0514 61.7662 27.5667 61.8823 29.1094 61.7322C29.4105 62.6229 29.753 63.497 30.1346 64.351C28.0316 64.6563 25.36 63.6179 23.5 63C23.4493 62.9831 23.9237 63.9324 23.8733 63.9146C24.4721 66.1682 25.3275 68.3331 26.4089 70.3752C26.9438 70.7831 27.6659 70.9886 28.6248 71.0526C30.0248 71.1463 31.8078 70.8009 33.508 70.1297C34.0668 70.8946 34.6566 71.6341 35.2768 72.3485C33.0835 73.3254 29.7133 73.1346 27.5 73C28.9981 75.1244 31.7505 77.8355 33.7384 79.5502C34.3797 79.7606 35.1384 79.7634 36.0528 79.591C37.498 79.3185 39.1923 78.5138 40.724 77.4086H40.7288C41.5047 77.9874 42.3058 78.5362 43.1232 79.0454C41.3204 80.4872 39.2657 81.62 37.1725 82.1327C38.9269 83.2792 40.8077 84.267 42.794 85.0696C43.5372 85.1311 44.343 84.9299 45.2544 84.5013C46.4093 83.9579 47.6299 83.0097 48.7213 81.8417C51.2858 82.8286 53.9497 83.4741 56.6339 83.7193L56.9019 81.0095C54.754 80.8131 52.599 80.3155 50.4947 79.5636C51.5309 77.9475 52.2425 76.1922 52.4427 74.6989C52.62 73.3729 52.4552 72.3482 51.8734 71.5799C50.657 71.35 49.4813 71.0066 48.3546 70.5614C48.3287 71.5027 48.0977 72.4509 47.7193 73.3394C47.1555 74.6638 46.2862 75.9288 45.2309 77.0814C44.4251 76.603 43.6405 76.0874 42.8739 75.5356C43.8705 74.4907 44.6688 73.3576 45.1179 72.3028C45.6908 70.9576 45.746 69.8909 45.2119 68.9842C44.0456 68.263 42.9534 67.422 41.9426 66.4788C41.6757 67.1044 41.3123 67.6966 40.884 68.2384C40.0597 69.2808 38.9914 70.2039 37.7885 70.9889C37.1683 70.3022 36.5764 69.5917 36.0197 68.8519C37.0963 68.169 38.0212 67.3825 38.6496 66.5878C39.408 65.6284 39.7365 64.7823 39.6232 63.9553C38.8742 63.0019 38.194 61.9792 37.591 60.9C37.247 61.2908 36.8594 61.6478 36.4383 61.9596C35.421 62.7125 34.2107 63.2916 32.9149 63.7099C32.5242 62.882 32.1686 62.037 31.8611 61.1729C32.9791 60.823 33.9882 60.3461 34.7258 59.7999C35.5833 59.1653 36.0508 58.5567 36.1607 57.8722C35.7046 56.7086 35.3316 55.4978 35.0459 54.2483C34.7632 54.4047 34.4708 54.5428 34.1709 54.6576C33.0494 55.0864 31.8 55.3027 30.5159 55.3487C30.4162 54.4525 30.3613 53.5442 30.3604 52.6251C31.4077 52.5868 32.3872 52.416 33.1363 52.1297C33.8288 51.8649 34.2796 51.5768 34.5428 51.2204C34.3895 49.8062 34.3426 48.3557 34.4204 46.8829C34.3225 46.898 34.2262 46.9091 34.1286 46.9193C33.1315 47.0247 32.088 46.9411 31.0568 46.7239C31.263 45.8538 31.5189 44.9765 31.8236 44.0959C32.5567 44.2316 33.2594 44.2738 33.8227 44.2143C34.2163 44.1727 34.505 44.1043 34.726 44.0097C34.936 42.7105 35.2389 41.4427 35.6247 40.2223C34.9951 40.1153 34.3776 39.918 33.7806 39.6586C34.2072 38.8646 34.6727 38.0687 35.1872 37.2718C35.5506 37.4119 35.8972 37.514 36.1939 37.5584C36.3605 37.5832 36.4984 37.597 36.6127 37.5992C36.9056 36.9241 37.2181 36.265 37.5583 35.6259C38.4462 33.9088 39.4272 32.0974 40.1175 30.1061ZM76.905 30.1061C77.5949 32.0973 78.5759 33.9085 79.4641 35.6257C79.8043 36.2649 80.1214 36.9239 80.414 37.5989C80.5272 37.5965 80.6639 37.5824 80.828 37.5581C81.126 37.5136 81.4747 37.4126 81.8396 37.2715C82.3541 38.0684 82.8196 38.8643 83.2462 39.6584C82.6477 39.9183 82.0275 40.1153 81.3976 40.2223C81.7834 41.443 82.086 42.7102 82.2959 44.0095C82.5178 44.1052 82.8083 44.1724 83.2041 44.2143C83.7674 44.274 84.4701 44.2318 85.2032 44.096C85.5082 44.9781 85.759 45.857 85.9654 46.7287C84.9362 46.945 83.8937 47.0249 82.8982 46.9197C82.7994 46.9092 82.7013 46.8986 82.6021 46.8833C82.6799 48.3563 82.6376 49.8065 82.4843 51.2207C82.7478 51.5771 83.1986 51.8652 83.8911 52.13C84.6388 52.4159 85.6166 52.5868 86.6619 52.6255C86.661 53.5445 86.6062 54.4529 86.5068 55.3491C85.2243 55.3026 83.9766 55.0861 82.8563 54.658C82.5562 54.5431 82.2643 54.4049 81.9813 54.2486C81.696 55.4962 81.3214 56.7059 80.8664 57.8677C80.974 58.5544 81.4377 59.1643 82.2965 59.8001C83.0347 60.3461 84.0435 60.8229 85.1617 61.1729C84.854 62.0372 84.4985 62.882 84.1079 63.71C82.8136 63.2917 81.6054 62.7116 80.5891 61.9597C80.167 61.6472 79.7762 61.2917 79.4318 60.9001C78.8281 61.98 78.1492 63.0016 77.3995 63.9554C77.2851 64.7821 77.6148 65.6289 78.3735 66.5881C79.0009 67.382 79.926 68.1696 81.0029 68.8523C80.4464 69.5922 79.8543 70.3023 79.2341 70.9892C78.0313 70.2041 76.9631 69.2811 76.1388 68.2385C75.7115 67.698 75.3508 67.1069 75.085 66.4833C74.0749 67.4258 72.9811 68.2635 71.8153 68.984C71.2814 69.8909 71.3366 70.9576 71.9096 72.3029C72.3589 73.3577 73.1572 74.4907 74.1538 75.5357C73.3868 76.0879 72.5983 76.6028 71.7921 77.0814C70.7379 75.9288 69.8722 74.6638 69.3083 73.3394C68.93 72.451 68.6991 71.5029 68.673 70.5617C67.5444 71.0075 66.3678 71.35 65.1497 71.5801C64.5667 72.3483 64.403 73.3732 64.5807 74.699C64.7804 76.1923 65.4959 77.9478 66.5327 79.5639C64.4291 80.3158 62.2735 80.8132 60.1255 81.0097L60.389 83.7194C63.0745 83.474 65.7399 82.8296 68.3063 81.8417C69.3977 83.0097 70.6183 83.9579 71.7732 84.5013C72.6848 84.93 73.4905 85.1312 74.2337 85.0696C76.2208 84.2669 78.1001 83.2797 79.8551 82.1325C77.7632 81.6204 75.706 80.4895 73.9043 79.0496C74.7236 78.5398 75.5211 77.9886 76.2988 77.4085C77.8312 78.5148 79.5287 79.3182 80.9748 79.5908C81.8864 79.7628 82.6442 79.7632 83.2846 79.5545C85.2735 77.8394 87.036 75.8922 88.5346 73.7669C86.3209 73.9014 83.9393 73.3253 81.7461 72.3483C82.3663 71.6335 82.9603 70.8949 83.5194 70.1296C85.2198 70.8003 87.0026 71.146 88.4029 71.0523C89.3615 70.9883 90.0838 70.7829 90.6183 70.3749C91.6996 68.3328 92.5553 66.1678 93.154 63.9143C93.1035 63.9322 93.2047 63.3428 93.154 63.3595C91.2941 63.9774 88.9957 64.656 86.8925 64.3507C87.2743 63.4967 87.6171 62.6226 87.9181 61.7319C89.459 61.8813 90.9725 61.7654 92.0862 61.3954C92.9541 61.1073 93.5389 60.7472 93.8878 60.2406C94.1836 58.0661 94.2449 55.8297 94.048 53.5618C94.0415 53.5658 93.8943 52.6209 93.8878 52.6251C92.5375 53.4847 91.023 54.9551 89.3059 55.1985C89.3907 54.2817 89.4348 53.3527 89.4282 52.416C90.6204 52.1859 91.7178 51.7879 92.4811 51.302C93.0219 50.9578 93.3762 50.6322 93.5774 50.2789C93.1357 48.0625 92.3938 44.5082 91.4999 42.5C90.695 43.3104 89.7326 45.3766 88.6142 45.869C88.3994 44.9847 88.1382 44.0991 87.8332 43.2091C88.5566 42.8435 89.1793 42.4142 89.5786 41.9997C89.9115 41.654 90.0907 41.3959 90.1526 41.1587C89.2539 39.5912 88.0405 36.278 86.8925 34.8936C86.4948 35.4459 86.1829 37.7703 85.6316 38.2125C85.1943 37.4046 84.7213 36.5991 84.2015 35.7936C84.5339 35.4785 84.7966 35.1593 84.9494 34.893C85.0304 34.7519 85.0879 34.6521 85.1234 34.5703C84.8064 34.2513 84.4799 33.9398 84.1497 33.6338C81.6067 31.8303 79.5427 30.9281 76.905 30.1061ZM42.8596 38.972L46.4867 57.8447H71.1892L74.6374 39.7312L65.9158 48.9698L59 34.5663L52.3721 48.9699L42.8596 38.972ZM47.0089 60.5636L47.5453 63.3595H70.14L70.6718 60.5635L47.0089 60.5636Z" fill="#E1B574"/>
</svg>
