<svg width="99" height="102" viewBox="0 0 99 102" fill="none" xmlns="http://www.w3.org/2000/svg">
<ellipse cx="49.0084" cy="51.0686" rx="49.0084" ry="50.3513" fill="#800B0B"/>
<ellipse cx="49.0085" cy="51.0685" rx="47.7188" ry="48.9718" fill="white"/>
<path d="M16.7661 17.2711H82.6327V83.4865H16.7661V17.2711Z" fill="white"/>
<path d="M34.081 26.7605C31.8269 27.4912 30.0632 28.2935 27.8899 29.8967C27.6082 30.1679 27.332 30.4424 27.0615 30.7251C27.0923 30.7983 27.1399 30.8887 27.2103 31.0161C27.341 31.253 27.5663 31.5364 27.8497 31.8167C27.4053 32.5326 27.0011 33.2486 26.6275 33.9666C26.1562 33.5734 25.7332 33.1359 25.3933 32.6449C24.4134 33.8741 23.5312 35.1898 22.764 36.5816C22.8149 36.7932 22.9643 37.0239 23.2503 37.333C23.592 37.7019 24.1258 38.0831 24.746 38.4082C24.4856 39.1993 24.2623 39.9865 24.0788 40.7723C23.1217 40.3352 22.2462 39.7677 21.5581 39.0467C20.794 40.8319 20.2108 42.7221 19.8335 44.6926C20.0052 45.0074 20.3113 45.2956 20.7742 45.602C21.4266 46.0339 22.3642 46.3878 23.3833 46.5923C23.3776 47.4247 23.4155 48.2505 23.4878 49.0655C22.0203 48.8491 20.6055 48.3868 19.4515 47.6227C19.4451 47.6183 19.4379 47.615 19.4315 47.6106C19.263 49.6268 19.3193 51.6145 19.5721 53.5475C19.8693 53.9975 20.3666 54.3179 21.1077 54.574C22.0605 54.9033 23.3554 55.0065 24.6738 54.8731C24.9311 55.6648 25.2238 56.4418 25.5499 57.2009C23.7527 57.4723 21.9173 57.4107 20.3278 56.8615C20.2844 56.8465 20.2422 56.8289 20.1991 56.813C20.7109 58.8162 21.4418 60.7406 22.366 62.5558C22.8231 62.9185 23.4402 63.1011 24.2597 63.158C25.4561 63.2413 26.9798 62.9343 28.4327 62.3377C28.9102 63.0175 29.4143 63.6749 29.9443 64.3099C28.0699 65.1783 26.0386 65.6905 24.1471 65.5708C25.4274 67.4593 26.9308 69.1873 28.6297 70.7116C29.1777 70.8986 29.8261 70.9011 30.6075 70.7478C31.8424 70.5056 33.2904 69.7903 34.5993 68.8079H34.6034C35.2665 69.3224 35.9511 69.8102 36.6497 70.2628C35.109 71.5445 33.3531 72.5514 31.5643 73.0071C33.0636 74.0262 34.6709 74.9044 36.3683 75.6177C37.0035 75.6724 37.6921 75.4936 38.4709 75.1126C39.4579 74.6296 40.501 73.7867 41.4336 72.7485C43.6252 73.6257 45.9018 74.1995 48.1956 74.4175L48.4246 72.0087C46.5891 71.8341 44.7474 71.3919 42.9492 70.7235C43.8347 69.2869 44.4428 67.7266 44.6139 66.3992C44.7654 65.2205 44.6246 64.3097 44.1273 63.6267C43.0879 63.4223 42.0832 63.1171 41.1203 62.7214C41.0981 63.5581 40.9008 64.401 40.5774 65.1908C40.0956 66.368 39.3527 67.4925 38.4509 68.517C37.7622 68.0918 37.0917 67.6335 36.4366 67.1429C37.2883 66.2141 37.9705 65.2069 38.3542 64.2693C38.8439 63.0735 38.8911 62.1253 38.4346 61.3194C37.4379 60.6783 36.5046 59.9308 35.6407 59.0923C35.4126 59.6484 35.1021 60.1748 34.7361 60.6564C34.0316 61.583 33.1187 62.4036 32.0907 63.1013C31.5607 62.4909 31.0549 61.8594 30.5791 61.2018C31.4992 60.5947 32.2896 59.8956 32.8266 59.1892C33.4747 58.3364 33.7554 57.5843 33.6587 56.8492C33.0185 56.0017 32.4373 55.0927 31.922 54.1333C31.628 54.4807 31.2967 54.798 30.9369 55.0752C30.0675 55.7445 29.0332 56.2592 27.9258 56.631C27.592 55.8951 27.2881 55.144 27.0253 54.3759C27.9808 54.0649 28.8431 53.641 29.4734 53.1555C30.2062 52.5913 30.6058 52.0504 30.6997 51.4419C30.3099 50.4075 29.9911 49.3313 29.7469 48.2206C29.5053 48.3596 29.2555 48.4824 28.9993 48.5844C28.0408 48.9655 26.9731 49.1578 25.8757 49.1987C25.7906 48.4021 25.7436 47.5947 25.7428 46.7777C26.6378 46.7437 27.4749 46.5919 28.1151 46.3373C28.7068 46.102 29.0921 45.8459 29.317 45.5291C29.186 44.272 29.1459 42.9826 29.2124 41.6734C29.1288 41.6869 29.0465 41.6967 28.9631 41.7058C28.111 41.7995 27.2192 41.7252 26.338 41.5321C26.5142 40.7587 26.7329 39.9789 26.9933 39.196C27.6198 39.3167 28.2203 39.3542 28.7017 39.3013C29.038 39.2643 29.2847 39.2035 29.4736 39.1195C29.653 37.9646 29.9119 36.8376 30.2416 35.7528C29.7036 35.6577 29.1759 35.4823 28.6657 35.2517C29.0303 34.546 29.428 33.8384 29.8677 33.1301C30.1783 33.2546 30.4744 33.3454 30.728 33.3849C30.8704 33.4069 30.9882 33.4191 31.0859 33.4211C31.3362 32.821 31.6033 32.2352 31.894 31.667C32.6528 30.1407 33.4912 28.5306 34.081 26.7605ZM65.5188 26.7605C66.1084 28.5305 66.9468 30.1404 67.7058 31.6669C67.9965 32.235 68.2675 32.8209 68.5175 33.4208C68.6143 33.4188 68.7311 33.4062 68.8713 33.3846C69.126 33.345 69.424 33.2553 69.7358 33.1298C70.1755 33.8382 70.5733 34.5457 70.9379 35.2516C70.4264 35.4826 69.8964 35.6577 69.3581 35.7528C69.6878 36.8379 69.9464 37.9643 70.1257 39.1192C70.3154 39.2043 70.5637 39.2641 70.9019 39.3013C71.3833 39.3543 71.9838 39.3168 72.6103 39.1962C72.8709 39.9803 73.0852 40.7615 73.2616 41.5363C72.3821 41.7287 71.4912 41.7997 70.6405 41.7062C70.5561 41.6968 70.4722 41.6874 70.3874 41.6738C70.4539 42.9831 70.4178 44.2723 70.2868 45.5293C70.5119 45.8462 70.8972 46.1022 71.489 46.3376C72.128 46.5917 72.9635 46.7437 73.8569 46.7781C73.8561 47.5949 73.8093 48.4024 73.7244 49.1991C72.6283 49.1577 71.5621 48.9653 70.6047 48.5848C70.3482 48.4826 70.0987 48.3598 69.8569 48.2209C69.6131 49.3298 69.293 50.4052 68.9041 51.4379C68.9961 52.0483 69.3923 52.5904 70.1263 53.1556C70.7571 53.641 71.6192 54.0648 72.5748 54.3759C72.3118 55.1441 72.0081 55.8951 71.6743 56.6311C70.5682 56.2593 69.5357 55.7437 68.6672 55.0753C68.3064 54.7975 67.9725 54.4815 67.6781 54.1334C67.1623 55.0933 66.5821 56.0014 65.9414 56.8493C65.8436 57.5841 66.1254 58.3368 66.7738 59.1895C67.31 59.8952 68.1005 60.5953 69.0208 61.2022C68.5452 61.8598 68.0392 62.4911 67.5092 63.1016C66.4813 62.4038 65.5685 61.5833 64.864 60.6566C64.4989 60.1761 64.1907 59.6506 63.9635 59.0964C63.1003 59.9341 62.1655 60.6788 61.1693 61.3192C60.713 62.1253 60.7602 63.0735 61.2498 64.2694C61.6338 65.2071 62.3161 66.2141 63.1677 67.1431C62.5122 67.6339 61.8384 68.0916 61.1495 68.517C60.2486 67.4925 59.5087 66.368 59.0268 65.1908C58.7036 64.4011 58.5062 63.5583 58.484 62.7216C57.5195 63.1179 56.514 63.4223 55.473 63.6269C54.9748 64.3098 54.8349 65.2208 54.9867 66.3993C55.1574 67.7267 55.7689 69.2872 56.6549 70.7237C54.8572 71.3921 53.0151 71.8343 51.1794 72.0089L51.4046 74.4176C53.6996 74.1994 55.9774 73.6266 58.1706 72.7485C59.1033 73.7867 60.1463 74.6296 61.1333 75.1126C61.9124 75.4937 62.6009 75.6726 63.236 75.6177C64.9341 74.9042 66.5401 74.0268 68.0399 73.007C66.2522 72.5518 64.4942 71.5465 62.9545 70.2666C63.6546 69.8134 64.3362 69.3234 65.0008 68.8078C66.3104 69.7912 67.761 70.5053 68.9968 70.7477C69.7758 70.9005 70.4234 70.9009 70.9707 70.7153C72.6704 69.1908 74.1765 67.4599 75.4572 65.5707C73.5655 65.6903 71.5302 65.1782 69.6559 64.3098C70.186 63.6744 70.6936 63.0178 71.1714 62.3375C72.6244 62.9337 74.148 63.241 75.3447 63.1577C76.1639 63.1008 76.7811 62.9182 77.2379 62.5556C78.162 60.7404 78.8932 58.8158 79.4048 56.8127C79.3617 56.8286 79.3195 56.8463 79.2762 56.8612C77.6868 57.4104 75.8513 57.472 74.0539 57.2007C74.3802 56.4415 74.6731 55.6645 74.9304 54.8728C76.2472 55.0056 77.5406 54.9025 78.4924 54.5737C79.234 54.3176 79.7338 53.9975 80.032 53.5472C80.2848 51.6143 80.3371 49.6263 80.1689 47.6103C80.1633 47.6139 80.1583 47.6187 80.1528 47.6225C78.9988 48.3865 77.5837 48.8489 76.1164 49.0652C76.1888 48.2502 76.2265 47.4245 76.2209 46.5919C77.2397 46.3873 78.1776 46.0336 78.8298 45.6016C79.292 45.2956 79.5947 45.0062 79.7667 44.6922C79.3893 42.722 78.8057 40.8315 78.0418 39.0464C77.354 39.7668 76.481 40.3345 75.5253 40.7722C75.3417 39.9861 75.1185 39.1989 74.8579 38.4078C75.476 38.0828 76.0082 37.7012 76.3494 37.3327C76.6339 37.0254 76.787 36.796 76.8399 36.5852C76.0719 35.1918 75.1914 33.8752 74.2104 32.6446C73.8705 33.1355 73.4475 33.5732 72.9764 33.9663C72.6027 33.2482 72.1985 32.5321 71.7543 31.8161C72.0383 31.536 72.2628 31.2523 72.3934 31.0156C72.4626 30.8902 72.5117 30.8014 72.5421 30.7288C72.2712 30.4451 71.9921 30.1683 71.71 29.8963C69.5368 28.2931 67.7729 27.4912 65.5188 26.7605ZM36.4244 34.6414L39.524 51.4174H60.6343L63.581 35.3162L56.1277 43.5285L50.3426 34.8395L44.5535 43.5286L36.4244 34.6414ZM39.9703 53.8343L40.4287 56.3196H59.7376L60.1921 53.8342L39.9703 53.8343Z" fill="#800B0B"/>
</svg>
