<svg width="68" height="55" viewBox="0 0 68 55" fill="none" xmlns="http://www.w3.org/2000/svg">
<path d="M16.6931 0.49553C14.189 1.30297 12.2297 2.18959 9.81554 3.96111C9.50256 4.26079 9.19574 4.56419 8.89519 4.87659C8.92949 4.95748 8.98237 5.05737 9.06054 5.19814C9.20574 5.45995 9.45597 5.77307 9.77081 6.08276C9.27719 6.87391 8.82817 7.66506 8.41316 8.4585C7.88953 8.02405 7.41964 7.54059 7.04207 6.99796C5.95353 8.35632 4.97345 9.81015 4.12127 11.3482C4.17772 11.582 4.34378 11.8369 4.66147 12.1785C5.04104 12.5862 5.63398 13.0073 6.32295 13.3666C6.0337 14.2408 5.78561 15.1107 5.58182 15.979C4.51856 15.496 3.54606 14.8689 2.78163 14.0722C1.93274 16.0449 1.28493 18.1337 0.865771 20.3111C1.05656 20.6589 1.39654 20.9775 1.91073 21.316C2.63557 21.7933 3.67711 22.1843 4.80924 22.4103C4.80281 23.3302 4.84497 24.2427 4.92529 25.1433C3.29511 24.9042 1.72338 24.3933 0.44147 23.549C0.434324 23.5441 0.426321 23.5404 0.419176 23.5356C0.231963 25.7635 0.294558 27.9601 0.575377 30.096C0.9055 30.5933 1.45799 30.9473 2.2813 31.2304C3.33969 31.5943 4.77823 31.7083 6.24278 31.5608C6.5286 32.4357 6.85372 33.2943 7.216 34.1332C5.21954 34.433 3.18063 34.365 1.41483 33.7581C1.36667 33.7415 1.3198 33.7221 1.27192 33.7045C1.84042 35.9182 2.65244 38.0447 3.67911 40.0506C4.18687 40.4513 4.87241 40.6531 5.78275 40.716C7.11182 40.808 8.80445 40.4687 10.4185 39.8095C10.949 40.5608 11.5089 41.2872 12.0977 41.9889C10.0155 42.9485 7.75891 43.5144 5.6577 43.3822C7.07995 45.469 8.75 47.3786 10.6373 49.0629C11.2461 49.2696 11.9663 49.2723 12.8344 49.1029C14.2063 48.8353 15.8148 48.0448 17.2689 46.9593C17.27 46.96 17.2726 46.9586 17.2735 46.9593C18.01 47.5278 18.7706 48.0668 19.5466 48.567C17.8351 49.9833 15.8845 51.096 13.8973 51.5996C15.5628 52.7257 17.3483 53.6961 19.2341 54.4844C19.9396 54.5448 20.7046 54.3472 21.5698 53.9262C22.6662 53.3924 23.8249 52.4611 24.861 51.3138C27.2956 52.2831 29.8246 52.9172 32.3728 53.158L32.6272 50.4963C30.5881 50.3034 28.5422 49.8146 26.5446 49.0761C27.5283 47.4886 28.2038 45.7644 28.3939 44.2976C28.5622 42.9951 28.4058 41.9886 27.8534 41.2339C26.6987 41.0081 25.5826 40.6708 24.5129 40.2335C24.4883 41.1581 24.2691 42.0895 23.9098 42.9622C23.3746 44.2631 22.5493 45.5057 21.5475 46.6379C20.7825 46.168 20.0376 45.6615 19.3099 45.1195C20.256 44.0931 21.0139 42.9801 21.4402 41.944C21.9841 40.6226 22.0365 39.5748 21.5295 38.6842C20.4222 37.9758 19.3854 37.1498 18.4257 36.2233C18.1724 36.8378 17.8274 37.4194 17.4208 37.9516C16.6382 38.9756 15.6241 39.8824 14.4821 40.6534C13.8933 39.9788 13.3314 39.281 12.8029 38.5543C13.825 37.8835 14.7031 37.1109 15.2996 36.3303C16.0196 35.388 16.3314 34.5568 16.2239 33.7445C15.5128 32.808 14.8671 31.8035 14.2946 30.7434C13.9681 31.1272 13.6001 31.4779 13.2004 31.7842C12.2346 32.5238 11.0856 33.0925 9.85541 33.5034C9.48456 32.6903 9.147 31.8602 8.85504 31.0115C9.91643 30.6678 10.8744 30.1993 11.5746 29.6628C12.3886 29.0395 12.8325 28.4417 12.9368 27.7693C12.5038 26.6263 12.1497 25.437 11.8785 24.2097C11.6101 24.3633 11.3325 24.4989 11.0479 24.6117C9.98317 25.0328 8.79701 25.2453 7.57799 25.2905C7.48338 24.4102 7.43122 23.518 7.43036 22.6152C8.42459 22.5776 9.35451 22.4098 10.0656 22.1286C10.723 21.8685 11.151 21.5855 11.4008 21.2354C11.2554 19.8463 11.2108 18.4215 11.2847 16.9748C11.1918 16.9897 11.1003 17.0005 11.0077 17.0105C10.0611 17.1142 9.0704 17.032 8.09147 16.8186C8.28725 15.964 8.5302 15.1023 8.81945 14.2372C9.51543 14.3706 10.1825 14.412 10.7173 14.3536C11.0909 14.3127 11.365 14.2455 11.5748 14.1526C11.7741 12.8764 12.0617 11.6311 12.4279 10.4324C11.8303 10.3272 11.2441 10.1334 10.6773 9.8786C11.0823 9.09874 11.5242 8.31688 12.0126 7.53416C12.3576 7.67178 12.6866 7.7721 12.9683 7.81569C13.1265 7.83998 13.2574 7.85356 13.3659 7.8557C13.644 7.1926 13.9406 6.54522 14.2636 5.91741C15.1065 4.23078 16.0379 2.45183 16.6931 0.495816V0.49553ZM51.6168 0.49553C52.2718 2.4514 53.2032 4.2305 54.0463 5.91727C54.3693 6.54507 54.6703 7.19246 54.9481 7.85542C55.0556 7.85313 55.1853 7.83927 55.3411 7.8154C55.6241 7.77167 55.955 7.67249 56.3015 7.53387C56.7899 8.31659 57.2318 9.09845 57.6368 9.87846C57.0686 10.1337 56.4798 10.3272 55.8819 10.4324C56.2481 11.6314 56.5354 12.8761 56.7346 14.1523C56.9453 14.2464 57.2211 14.3124 57.5968 14.3536C58.1316 14.4122 58.7987 14.3707 59.4946 14.2374C59.7842 15.1038 60.0223 15.9672 60.2182 16.8233C59.2411 17.0358 58.2515 17.1143 57.3064 17.011C57.2126 17.0007 57.1195 16.9903 57.0253 16.9752C57.0992 18.4221 57.059 19.8466 56.9135 21.2357C57.1636 21.5858 57.5916 21.8688 58.249 22.1289C58.9589 22.4097 59.8871 22.5776 60.8794 22.6156C60.8786 23.5183 60.8266 24.4106 60.7322 25.2909C59.5146 25.2452 58.3302 25.0325 57.2667 24.6121C56.9817 24.4992 56.7046 24.3634 56.4359 24.2099C56.1651 25.4354 55.8096 26.6237 55.3775 27.7648C55.4797 28.4394 55.9199 29.0385 56.7352 29.663C57.436 30.1993 58.3937 30.6676 59.4552 31.0115C59.1631 31.8604 58.8257 32.6903 58.4548 33.5036C57.2261 33.0927 56.0791 32.5229 55.1143 31.7843C54.7136 31.4774 54.3426 31.1281 54.0156 30.7435C53.4425 31.8042 52.798 32.8077 52.0863 33.7446C51.9777 34.5567 52.2907 35.3884 53.0109 36.3306C53.6066 37.1105 54.4848 37.884 55.5072 38.5547C54.9788 39.2814 54.4167 39.979 53.828 40.6537C52.6861 39.8825 51.672 38.9759 50.8894 37.9518C50.4839 37.4209 50.1414 36.8402 49.8891 36.2277C48.9301 37.1535 47.8917 37.9764 46.785 38.6841C46.2781 39.5748 46.3306 40.6226 46.8745 41.9441C47.3011 42.9802 48.0589 44.0931 49.005 45.1196C48.2769 45.662 47.5283 46.1677 46.763 46.6379C45.7622 45.5057 44.9404 44.2631 44.405 42.9622C44.0459 42.0896 43.8267 41.1583 43.8019 40.2338C42.7305 40.6717 41.6135 41.0081 40.4571 41.2342C39.9036 41.9887 39.7483 42.9954 39.9169 44.2977C40.1066 45.7646 40.7858 47.4889 41.77 49.0764C39.773 49.8149 37.7267 50.3035 35.6875 50.4965L35.9376 53.1582C38.4871 52.9171 41.0175 52.2841 43.4538 51.3138C44.4899 52.4611 45.6486 53.3924 46.745 53.9262C47.6105 54.3473 48.3754 54.545 49.0809 54.4844C50.9673 53.6959 52.7514 52.7263 54.4175 51.5994C52.4316 51.0964 50.4786 49.9856 48.7682 48.5712C49.5459 48.0704 50.3031 47.5289 51.0413 46.9591C52.4962 48.0458 54.1076 48.835 55.4804 49.1028C56.3459 49.2717 57.0653 49.2722 57.6732 49.0671C59.5614 47.3824 61.2346 45.4697 62.6572 43.3821C60.5558 43.5143 58.2948 42.9484 56.2127 41.9887C56.8015 41.2866 57.3654 40.561 57.8962 39.8093C59.5104 40.4682 61.2028 40.8077 62.5322 40.7157C63.4423 40.6528 64.1279 40.451 64.6354 40.0503C65.6619 38.0444 66.4742 35.9177 67.0426 33.7042C66.9947 33.7218 66.9479 33.7414 66.8997 33.7578C65.134 34.3647 63.095 34.4328 61.0984 34.1329C61.4608 33.294 61.7862 32.4354 62.072 31.5605C63.5349 31.7073 64.9717 31.5934 66.0289 31.23C66.8528 30.947 67.408 30.5933 67.7393 30.0957C68.0201 27.9598 68.0783 25.763 67.8913 23.5353C67.8852 23.5393 67.8796 23.5446 67.8735 23.5487C66.5916 24.393 65.0196 24.9039 63.3895 25.143C63.47 24.2424 63.5119 23.3299 63.5056 22.4098C64.6374 22.1838 65.6792 21.7929 66.4038 21.3156C66.9173 20.9775 67.2535 20.6576 67.4446 20.3106C67.0253 18.1335 66.3771 16.0445 65.5285 14.0719C64.7643 14.8679 63.7945 15.4953 62.7329 15.9789C62.5289 15.1103 62.281 14.2404 61.9914 13.3662C62.6781 13.0071 63.2693 12.5853 63.6483 12.1782C63.9645 11.8386 64.1345 11.5851 64.1933 11.3522C63.3401 9.81243 62.362 8.35746 61.2722 6.99767C60.8946 7.54016 60.4247 8.02377 59.9014 8.45822C59.4862 7.66463 59.0372 6.87334 58.5437 6.08219C58.8593 5.77264 59.1086 5.4591 59.2537 5.19757C59.3306 5.05895 59.3852 4.96091 59.4189 4.88059C59.1179 4.56719 58.808 4.26122 58.4946 3.96068C56.0804 2.18916 54.1211 1.30255 51.617 0.495102L51.6168 0.49553ZM19.2964 9.20421L22.7396 27.7423H46.1907L49.4642 9.94992L41.1844 19.0247L34.7578 9.42315L28.3269 19.0249L19.2966 9.20435L19.2964 9.20421ZM23.2354 30.413L23.7446 33.1593H45.1946L45.6995 30.4128H23.2357L23.2354 30.413Z" fill="#E1B574"/>
</svg>
