<svg width="20" height="20" viewBox="0 0 20 20" fill="none" xmlns="http://www.w3.org/2000/svg">
<path d="M19.9619 2.38293C19.2263 2.7797 18.4388 3.05267 17.6088 3.17647C18.4556 2.55133 19.1031 1.56248 19.4119 0.384468C18.6175 0.953479 17.7388 1.36563 16.8044 1.59862C16.0594 0.617455 14.9944 0 13.8125 0C11.5469 0 9.71062 2.25836 9.71062 5.04191C9.71062 5.44252 9.75 5.82699 9.81812 6.19146C6.41 5.99539 3.38875 3.98078 1.36813 0.937332C1.01313 1.67859 0.81125 2.53979 0.81125 3.47712C0.81125 5.23106 1.53687 6.76894 2.63375 7.6732C1.96312 7.64937 1.33187 7.42099 0.77875 7.04498V7.10573C0.77875 9.55171 2.19125 11.5909 4.06625 12.0554C3.72438 12.1669 3.35938 12.2314 2.98875 12.2314C2.72563 12.2314 2.47438 12.1999 2.22375 12.143C2.75125 14.1453 4.26125 15.6032 6.06125 15.6471C4.66187 16.9965 2.88813 17.8008 0.976875 17.8008C0.65125 17.8008 0.32625 17.7816 0 17.7332C1.82313 19.1634 3.975 20 6.29937 20C13.8412 20 17.9625 12.3145 17.9625 5.65859C17.9625 5.44637 17.9625 5.2303 17.9494 5.01346C18.7537 4.30834 19.45 3.41484 20 2.40215L19.9619 2.38293Z" fill="#E1B574"/>
</svg>
